<?xml version="1.0" standalone="no"?><!DOCTYPE svg PUBLIC "-//W3C//DTD SVG 1.1//EN" "http://www.w3.org/Graphics/SVG/1.1/DTD/svg11.dtd"><svg t="1737018667105" class="icon" viewBox="0 0 1024 1024" version="1.1" xmlns="http://www.w3.org/2000/svg" p-id="65746" xmlns:xlink="http://www.w3.org/1999/xlink" width="200" height="200"><path d="M512.1 512.1m-77.8 0a77.8 77.8 0 1 0 155.6 0 77.8 77.8 0 1 0-155.6 0Z" fill="#FFEB99" p-id="65747"></path><path d="M512.1 402.4c41.2 0 74.6-133.9 74.6-206.2S553.3 65.3 512.1 65.3s-74.6 58.6-74.6 130.9 33.4 206.2 74.6 206.2zM512.1 621.9c-41.2 0-74.6 133.9-74.6 206.2S470.9 959 512.1 959s74.6-58.6 74.6-130.9-33.4-206.2-74.6-206.2zM434.5 434.5c29.1-29.1-42-147.4-93.1-198.5-51.1-51.1-116.1-68.9-145.3-39.8-29.1 29.1-11.3 94.2 39.8 145.3 51.2 51.1 169.5 122.2 198.6 93zM589.7 589.7c-29.1 29.1 42 147.4 93.1 198.5 51.1 51.1 116.1 68.9 145.3 39.8 29.1-29.1 11.3-94.2-39.8-145.3-51.2-51-169.5-122.1-198.6-93zM402.4 512.1c0-41.2-133.9-74.6-206.2-74.6S65.3 470.9 65.3 512.1c0 41.2 58.6 74.6 130.9 74.6s206.2-33.4 206.2-74.6zM828 437.5c-72.3 0-206.2 33.4-206.2 74.6 0 41.2 133.9 74.6 206.2 74.6s130.9-33.4 130.9-74.6c0-41.2-58.6-74.6-130.9-74.6zM434.5 589.7c-29.1-29.1-147.4 42-198.5 93.1-51.1 51.1-68.9 116.1-39.8 145.3 29.1 29.1 94.2 11.3 145.3-39.8 51-51.2 122.1-169.5 93-198.6zM589.7 434.5c29.1 29.1 147.4-42 198.5-93.1 51.1-51.1 68.9-116.1 39.8-145.3-29.1-29.1-94.2-11.3-145.3 39.8-51.1 51.2-122.1 169.5-93 198.6z" fill="#FFEB99" p-id="65748"></path></svg>